<?xml version="1.0" encoding="iso-8859-1"?>
<!-- Uploaded to: SVG Repo, www.svgrepo.com, Generator: SVG Repo Mixer Tools -->
<svg height="800px" width="800px" version="1.1" id="Layer_1" xmlns="http://www.w3.org/2000/svg" xmlns:xlink="http://www.w3.org/1999/xlink" 
	 viewBox="0 0 512 512" xml:space="preserve">
<path style="fill:#36495E;" d="M433.294,235.931h-17.521v-38.57c0-21.496-4.277-42.009-12.009-60.747l16.638-16.638
	c7.837-7.837,7.837-20.543,0-28.38c-7.836-7.837-20.543-7.837-28.38,0l-8.987,8.986c-25.381-33.235-63.478-56.263-106.968-61.737
	V20.068C276.067,8.985,267.082,0,255.999,0S235.93,8.985,235.93,20.068v18.777c-43.49,5.475-81.588,28.502-106.968,61.737
	l-8.986-8.986c-7.835-7.837-20.542-7.837-28.38,0c-7.837,7.837-7.837,20.543,0,28.38l16.638,16.639
	c-7.732,18.738-12.009,39.251-12.009,60.747v38.57H78.705c-11.083,0-20.068,8.985-20.068,20.068
	c0,11.083,8.985,20.068,20.068,20.068h17.521v38.57c0,21.496,4.277,42.009,12.009,60.747l-16.638,16.638
	c-7.837,7.837-7.837,20.543,0,28.38c7.836,7.836,20.543,7.837,28.38,0l8.986-8.987c25.381,33.235,63.478,56.263,106.968,61.737
	v18.777c0,11.083,8.985,20.068,20.068,20.068c11.083,0,20.068-8.985,20.068-20.068v-18.777
	c43.49-5.475,81.588-28.502,106.968-61.737l8.987,8.987c7.836,7.837,20.542,7.837,28.38,0c7.837-7.837,7.837-20.543,0-28.38
	l-16.638-16.638c7.732-18.738,12.009-39.251,12.009-60.747v-38.57h17.521c11.083,0,20.068-8.985,20.068-20.068
	C453.362,244.916,444.377,235.931,433.294,235.931z"/>
<path style="fill:#2C3E50;" d="M433.294,235.931h-17.521v-38.57c0-21.496-4.277-42.009-12.009-60.747l16.638-16.638
	c7.837-7.837,7.837-20.543,0-28.38c-7.836-7.837-20.543-7.837-28.38,0l-8.987,8.986c-25.381-33.235-63.478-56.263-106.968-61.737
	V20.068C276.067,8.985,267.082,0,255.999,0v512c11.083,0,20.068-8.985,20.068-20.068v-18.777
	c43.49-5.475,81.588-28.502,106.968-61.737l8.987,8.987c7.836,7.837,20.542,7.837,28.38,0c7.837-7.837,7.837-20.543,0-28.38
	l-16.638-16.638c7.732-18.738,12.009-39.251,12.009-60.747v-38.57h17.521c11.083,0,20.068-8.985,20.068-20.068
	C453.362,244.916,444.377,235.931,433.294,235.931z"/>
<path style="fill:#F1F2F2;" d="M255.999,418.469c-57.254,0-103.832-46.578-103.832-103.832V197.363
	c0-57.253,46.579-103.832,103.832-103.832s103.832,46.579,103.832,103.832v117.275C359.832,371.891,313.253,418.469,255.999,418.469
	z"/>
<path style="fill:#E6E7E8;" d="M255.999,93.531v324.94c57.254,0,103.832-46.578,103.832-103.832V197.363
	C359.832,140.109,313.253,93.531,255.999,93.531z"/>
<path style="fill:#65C6BB;" d="M255.999,256.609c-27.163,0-49.259-22.098-49.259-49.259c0-27.163,22.098-49.26,49.259-49.26
	s49.259,22.098,49.259,49.26C305.259,234.512,283.161,256.609,255.999,256.609z M255.999,198.226c-5.03,0-9.123,4.094-9.123,9.124
	c0,5.03,4.093,9.123,9.123,9.123c5.03,0,9.123-4.093,9.123-9.123C265.123,202.319,261.029,198.226,255.999,198.226z"/>
<path style="fill:#FFDA79;" d="M264.015,347.749l-44.97-46.789c-7.681-7.991-7.429-20.696,0.562-28.376
	c7.992-7.679,20.697-7.428,28.375,0.562l44.97,46.789c7.681,7.991,7.429,20.696-0.562,28.375
	C284.396,355.993,271.692,355.736,264.015,347.749z"/>
<path style="fill:#20B8AE;" d="M255.999,158.09v40.136c5.03,0,9.123,4.094,9.123,9.124c0,5.03-4.094,9.123-9.123,9.123v40.136
	c27.163,0,49.259-22.098,49.259-49.259C305.259,180.187,283.161,158.09,255.999,158.09z"/>
<path style="fill:#FFD155;" d="M292.952,319.935l-36.953-38.448v57.921l8.017,8.34c7.674,7.986,20.377,8.247,28.375,0.562
	C300.381,340.631,300.634,327.927,292.952,319.935z"/>
</svg>