<?xml version="1.0" encoding="iso-8859-1"?>
<!-- Uploaded to: SVG Repo, www.svgrepo.com, Generator: SVG Repo Mixer Tools -->
<svg version="1.1" id="Layer_1" xmlns="http://www.w3.org/2000/svg" xmlns:xlink="http://www.w3.org/1999/xlink" 
	 viewBox="0 0 432 432" xml:space="preserve">
<path style="fill:#F69494;" d="M368,280h-8v-32h20c15.2,0,28-12.8,28-28s-12.8-28-28-28H112c-17.6,0-32-14.4-32-32s14.4-32,32-32
	h223.2c22.4,0,40.8-18.4,40.8-40.8V8h-48v56c0,8.8-7.2,16-16,16H48c-13.6,0-24,10.4-24,24v8c0,12.8,10.4,24,24,24h3.2
	c1.6,0,3.2,0,4.8,0h8v24v8h-8c-17.6,0-32,14.4-32,32s14.4,32,32,32h200c17.6,0,32,14.4,32,32s-14.4,32-32,32H56
	c-17.6,0-32,14.4-32,32s14.4,32,24,32h160v32h-24v32h88v-32h-32v-32h128c22.4,0,40-17.6,40-40S390.4,280,368,280z M288,104h24v16
	h-24V104z M208,104h64v16h-64V104z M168,320H72v-16h96V320z M216,320h-24v-16h24V320z"/>
<g>
	<rect x="288" y="104" style="fill:#42210B;" width="24" height="16"/>
	<rect x="208" y="104" style="fill:#42210B;" width="64" height="16"/>
	<rect x="192" y="304" style="fill:#42210B;" width="24" height="16"/>
	<rect x="72" y="304" style="fill:#42210B;" width="96" height="16"/>
	<path style="fill:#42210B;" d="M335.2,136c27.2,0,48.8-21.6,48.8-48.8V0h16v87.2c0,36-28.8,64.8-64.8,64.8H112c-4,0-8,4-8,8
		s4,8,8,8h268c28.8,0,52,23.2,52,52c0,20-12,38.4-28.8,46.4c17.6,11.2,28.8,31.2,28.8,53.6c0,35.2-28.8,64-64,64h-72v48h-16v-48h-32
		v-16h120c26.4,0,48-21.6,48-48s-21.6-48-48-48v-16c2.4,0,5.6,0,8,0.8V256h4c20,0,36-16,36-36s-16-36-36-36H112
		c-12.8,0-24-11.2-24-24s11.2-24,24-24H335.2z"/>
</g>
<path style="fill:#EE5656;" d="M380,248c15.2,0,28-12.8,28-28s-12.8-28-28-28H112c-17.6,0-32-14.4-32-32s14.4-32,32-32h223.2
	c22.4,0,40.8-18.4,40.8-40.8V8h-48v56c0,8.8-7.2,16-16,16H48c-12.8,0-24,11.2-24,24v8c0,12.8,11.2,24,24,24h3.2c1.6,0,3.2,0,4.8,0h8
	v24v8h-8c-17.6,0-32,14.4-32,32s14.4,32,32,32h200c17.6,0,32,14.4,32,32s-14.4,32-32,32H56c-17.6,0-32,14.4-32,32s14.4,32,24,32h160
	v32h-24v32h88v-32h-32v-32h128c22.4,0,40-17.6,40-40s-17.6-40-40-40h-8v-32H380z M280,264c0-13.6-10.4-24-24-24H56
	c-22.4,0-40-17.6-40-40s17.6-40,40-40v-16c-2.4,0-5.6,0-8,0.8V144c-17.6,0-32-14.4-32-32v-8c0-17.6,14.4-32,32-32h264c4,0,8-3.2,8-8
	V0h64v87.2c0,27.2-21.6,48.8-48.8,48.8H112c-12.8,0-24,11.2-24,24s11.2,24,24,24h268c20,0,36,16,36,36s-16,36-36,36h-4v0.8
	c-2.4,0-5.6-0.8-8-0.8v16c26.4,0,48,21.6,48,48s-21.6,48-48,48H248v16h32v48H176v-48h24v-16H48c-14.4,0-32-18.4-32-40
	c0-22.4,17.6-40,40-40h200C269.6,288,280,277.6,280,264z"/>
<path style="fill:#42210B;" d="M264,264c0-4-4-8-8-8H56c-31.2,0-56-24.8-56-56c0-19.2,9.6-36,24.8-46.4C10.4,145.6,0,129.6,0,112v-8
	c0-26.4,21.6-48,48-48h256V0h16v64c0,4.8-4,8-8,8H48c-17.6,0-32,14.4-32,32v8c0,17.6,14.4,32,32,32v0.8c2.4,0,5.6-0.8,8-0.8v16
	c-22.4,0-40,17.6-40,40s17.6,40,40,40h200c13.6,0,24,10.4,24,24s-10.4,24-24,24H56c-22.4,0-40,17.6-40,40c0,21.6,17.6,40,32,40h152
	v16h-24v48h-16v-48H48c-22.4,0-48-24.8-48-56s24.8-56,56-56h200C260,272,264,268,264,264z"/>
</svg>