<?xml version="1.0" encoding="UTF-8" standalone="no"?>
<!-- Uploaded to: SVG Repo, www.svgrepo.com, Generator: SVG Repo Mixer Tools -->

<svg
   height="800px"
   width="800px"
   version="1.1"
   id="_x32_"
   viewBox="0 0 512 512"
   xml:space="preserve"
   sodipodi:docname="ribbon1.svg"
   inkscape:version="1.2.2 (1:1.2.2+202212051552+b0a8486541)"
   xmlns:inkscape="http://www.inkscape.org/namespaces/inkscape"
   xmlns:sodipodi="http://sodipodi.sourceforge.net/DTD/sodipodi-0.dtd"
   xmlns="http://www.w3.org/2000/svg"
   xmlns:svg="http://www.w3.org/2000/svg"><defs
   id="defs13" /><sodipodi:namedview
   id="namedview11"
   pagecolor="#ffffff"
   bordercolor="#666666"
   borderopacity="1.0"
   inkscape:showpageshadow="2"
   inkscape:pageopacity="0.0"
   inkscape:pagecheckerboard="0"
   inkscape:deskcolor="#d1d1d1"
   showgrid="false"
   inkscape:zoom="1.065"
   inkscape:cx="290.14085"
   inkscape:cy="400"
   inkscape:window-width="1920"
   inkscape:window-height="1027"
   inkscape:window-x="0"
   inkscape:window-y="25"
   inkscape:window-maximized="1"
   inkscape:current-layer="_x32_" />
<style
   type="text/css"
   id="style2">
	.st0{fill:#000000;}
</style>
<g
   id="g8">
	
	<path
   id="path6"
   class="st0"
   d="m 336.192,295.28 c -18.17,25.898 -41.014,53.889 -68.409,83.914 C 336.911,452.99 408.232,512 408.232,512 l 7.563,-71.95 77.436,-19.642 c 0,0 -78.95,-56.304 -157.039,-125.128 z M 255.992,0 C 184.108,0 116.46,64.412 141.82,188.497 c 5.047,24.648 18.6,52.267 37.076,80.704 23.1,-20.859 45.639,-42.536 65.43,-63.834 -6.338,-7.181 -12.344,-14.297 -17.921,-21.305 -45.946,-57.778 -38.06,-128.52 29.588,-128.52 67.664,0 75.549,70.742 29.604,128.52 C 201.036,290.416 18.769,420.408 18.769,420.408 l 83.534,19.642 1.465,71.95 c 0,0 241.028,-199.419 266.404,-323.503 C 395.541,64.412 327.876,0 255.992,0 Z"
   style="fill:#470f88;fill-opacity:1" />
</g>
</svg>
