<?xml version="1.0" encoding="UTF-8" standalone="no"?>
<!-- Uploaded to: SVG Repo, www.svgrepo.com, Generator: SVG Repo Mixer Tools -->

<svg
   width="800px"
   height="800px"
   viewBox="0 0 512 512"
   version="1.1"
   id="svg12"
   sodipodi:docname="smoke.svg"
   inkscape:version="1.2.2 (1:1.2.2+202212051552+b0a8486541)"
   xmlns:inkscape="http://www.inkscape.org/namespaces/inkscape"
   xmlns:sodipodi="http://sodipodi.sourceforge.net/DTD/sodipodi-0.dtd"
   xmlns="http://www.w3.org/2000/svg"
   xmlns:svg="http://www.w3.org/2000/svg">
  <defs
     id="defs16" />
  <sodipodi:namedview
     id="namedview14"
     pagecolor="#ffffff"
     bordercolor="#666666"
     borderopacity="1.0"
     inkscape:showpageshadow="2"
     inkscape:pageopacity="0.0"
     inkscape:pagecheckerboard="0"
     inkscape:deskcolor="#d1d1d1"
     showgrid="false"
     inkscape:zoom="1.065"
     inkscape:cx="305.16432"
     inkscape:cy="400"
     inkscape:window-width="1920"
     inkscape:window-height="1027"
     inkscape:window-x="0"
     inkscape:window-y="25"
     inkscape:window-maximized="1"
     inkscape:current-layer="svg12" />
  <path
     fill="var(--ci-primary-color, #000000)"
     d="M16,240V360H360V240H16Zm312,88H48V272H328Z"
     class="ci-primary"
     id="path2"
     style="fill:#5d1c97;fill-opacity:1" />
  <rect
     width="32"
     height="120"
     x="384"
     y="240"
     fill="var(--ci-primary-color, #000000)"
     class="ci-primary"
     id="rect4"
     style="fill:#5d1c97;fill-opacity:1" />
  <rect
     width="32"
     height="120"
     x="440"
     y="240"
     fill="var(--ci-primary-color, #000000)"
     class="ci-primary"
     id="rect6"
     style="fill:#5d1c97;fill-opacity:1" />
  <path
     fill="var(--ci-primary-color, #000000)"
     d="M385.428,173.3a31.982,31.982,0,0,1,2.32-38.418,63.745,63.745,0,0,0,3.479-78.69L385.377,48H348.8l-1.82,1.3,18.207,25.49a31.807,31.807,0,0,1-1.736,39.265,64.1,64.1,0,0,0-4.649,76.993L364.77,200h38.46Z"
     class="ci-primary"
     id="path8"
     style="fill:#5d1c97;fill-opacity:1" />
  <path
     fill="var(--ci-primary-color, #000000)"
     d="M457.428,173.3a31.982,31.982,0,0,1,2.32-38.418,63.745,63.745,0,0,0,3.479-78.69L457.377,48H420.8l-1.82,1.3,18.207,25.49a31.807,31.807,0,0,1-1.736,39.265,64.1,64.1,0,0,0-4.649,76.993L436.77,200h38.46Z"
     class="ci-primary"
     id="path10"
     style="fill:#5d1c97;fill-opacity:1" />
</svg>
