<?xml version="1.0" encoding="iso-8859-1"?>
<!-- Uploaded to: SVG Repo, www.svgrepo.com, Generator: SVG Repo Mixer Tools -->
<svg height="800px" width="800px" version="1.1" id="Layer_1" xmlns="http://www.w3.org/2000/svg" xmlns:xlink="http://www.w3.org/1999/xlink" 
	 viewBox="0 0 512 512" xml:space="preserve">
<path style="fill:#485762;" d="M507.661,347.119H4.339V34.712C4.339,15.542,19.881,0,39.051,0h433.898
	c19.17,0,34.712,15.542,34.712,34.712V347.119z"/>
<path style="fill:#8697CB;" d="M203.932,104.136c0,33.549-27.197,60.746-60.746,60.746s-60.746-27.197-60.746-60.746
	s27.197-60.746,60.746-60.746S203.932,70.587,203.932,104.136"/>
<path style="fill:#556080;" d="M143.186,52.068c-28.715,0-52.068,23.352-52.068,52.068s23.352,52.068,52.068,52.068
	s52.068-23.352,52.068-52.068S171.902,52.068,143.186,52.068 M143.186,173.559c-38.279,0-69.424-31.145-69.424-69.424
	s31.145-69.424,69.424-69.424s69.424,31.145,69.424,69.424S181.465,173.559,143.186,173.559"/>
<path style="fill:#8697CB;" d="M169.22,104.136c0,33.549-11.655,60.746-26.034,60.746c-14.379,0-26.034-27.197-26.034-60.746
	s11.655-60.746,26.034-60.746C157.566,43.39,169.22,70.587,169.22,104.136"/>
<path style="fill:#556080;" d="M143.186,52.068c-6.118,0-17.356,19.768-17.356,52.068s11.238,52.068,17.356,52.068
	s17.356-19.768,17.356-52.068S149.304,52.068,143.186,52.068 M143.186,173.559c-22.788,0-34.712-34.92-34.712-69.424
	s11.924-69.424,34.712-69.424s34.712,34.92,34.712,69.424S165.975,173.559,143.186,173.559"/>
<g transform="translate(9 12)">
	<path style="fill:#8697CB;" d="M73.441,92.136h121.492"/>
	<path style="fill:#556080;" d="M194.932,100.814H73.441c-4.79,0-8.678-3.888-8.678-8.678c0-4.79,3.888-8.678,8.678-8.678h121.492
		c4.79,0,8.678,3.888,8.678,8.678C203.61,96.926,199.722,100.814,194.932,100.814z"/>
</g>
<polygon style="fill:#BDC3C7;" points="334.102,503.322 177.898,503.322 203.932,416.542 308.068,416.542 "/>
<g>
	<path style="fill:#ECF1F1;" d="M351.458,512H160.542c-4.79,0-8.678-3.879-8.678-8.678c0-4.799,3.888-8.678,8.678-8.678h190.915
		c4.79,0,8.678,3.879,8.678,8.678C360.136,508.121,356.248,512,351.458,512"/>
	<path style="fill:#ECF1F1;" d="M472.949,416.542H39.051c-19.17,0-34.712-15.542-34.712-34.712v-34.712h503.322v34.712
		C507.661,401,492.119,416.542,472.949,416.542"/>
</g>
<path style="fill:#F0C419;" d="M229.966,216.949h-43.39c-4.79,0-8.678-3.879-8.678-8.678c0-4.799,3.888-8.678,8.678-8.678h43.39
	c4.79,0,8.678,3.879,8.678,8.678C238.644,213.07,234.756,216.949,229.966,216.949"/>
<path style="fill:#E64C3C;" d="M151.864,216.949H56.407c-4.79,0-8.678-3.879-8.678-8.678c0-4.799,3.888-8.678,8.678-8.678h95.458
	c4.79,0,8.678,3.879,8.678,8.678C160.542,213.07,156.655,216.949,151.864,216.949"/>
<path style="fill:#8697CB;" d="M229.966,251.661h-95.458c-4.79,0-8.678-3.879-8.678-8.678c0-4.799,3.888-8.678,8.678-8.678h95.458
	c4.79,0,8.678,3.879,8.678,8.678C238.644,247.782,234.756,251.661,229.966,251.661"/>
<path style="fill:#4FBA6F;" d="M99.797,251.661h-43.39c-4.79,0-8.678-3.879-8.678-8.678c0-4.799,3.888-8.678,8.678-8.678h43.39
	c4.79,0,8.678,3.879,8.678,8.678C108.475,247.782,104.587,251.661,99.797,251.661"/>
<polygon style="fill:#B66E30;" points="47.729,312.407 472.949,312.407 472.949,277.695 47.729,277.695 "/>
<path style="fill:#8697CB;" d="M389.016,165.836c-11.533,4.955-24.229,7.723-37.558,7.723c-13.338,0-26.025-2.768-37.567-7.723
	c-24.159,13.277-40.535,38.955-40.535,68.469v43.39h156.203v-43.39C429.559,204.791,413.175,179.113,389.016,165.836"/>
<polygon style="fill:#F0C419;" points="377.492,199.593 351.458,251.661 325.424,199.593 351.458,173.559 "/>
<path style="fill:#FDC693;" d="M403.525,95.458c0,28.759-23.309,52.068-52.068,52.068c-28.759,0-52.068-23.309-52.068-52.068
	s23.309-52.068,52.068-52.068C380.216,43.39,403.525,66.699,403.525,95.458"/>
</svg>